<?xml version="1.0" encoding="utf-8" standalone="no"?>
<!DOCTYPE svg PUBLIC "-//W3C//DTD SVG 1.1//EN"
  "http://www.w3.org/Graphics/SVG/1.1/DTD/svg11.dtd">
<!-- Created with matplotlib (http://matplotlib.org/) -->
<svg height="432pt" version="1.1" viewBox="0 0 576 432" width="576pt" xmlns="http://www.w3.org/2000/svg" xmlns:xlink="http://www.w3.org/1999/xlink">
 <defs>
  <style type="text/css">
*{stroke-linecap:butt;stroke-linejoin:round;}
  </style>
 </defs>
 <g id="figure_1">
  <g id="patch_1">
   <path d="
M0 432
L576 432
L576 0
L0 0
z
" style="fill:#ffffff;"/>
  </g>
  <g id="axes_1">
   <g id="patch_2">
    <path d="
M72 388.8
L518.4 388.8
L518.4 43.2
L72 43.2
z
" style="fill:#e5e5e5;"/>
   </g>
   <g id="matplotlib.axis_1">
    <g id="xtick_1">
     <g id="line2d_1">
      <path clip-path="url(#p7ff5b81e1d)" d="
M72 388.8
L72 43.2" style="fill:none;stroke:#ffffff;stroke-linecap:square;stroke-width:0.5;"/>
     </g>
     <g id="line2d_2">
      <defs>
       <path d="
M0 0
L0 4" id="m64c3aef5f4" style="stroke:#555555;stroke-width:0.5;"/>
      </defs>
      <g>
       <use style="fill:#555555;stroke:#555555;stroke-width:0.5;" x="72.0" xlink:href="#m64c3aef5f4" y="388.8"/>
      </g>
     </g>
     <g id="line2d_3">
      <defs>
       <path d="
M0 0
L0 -4" id="m91191bb255" style="stroke:#555555;stroke-width:0.5;"/>
      </defs>
      <g>
       <use style="fill:#555555;stroke:#555555;stroke-width:0.5;" x="72.0" xlink:href="#m91191bb255" y="43.2"/>
      </g>
     </g>
     <g id="text_1">
      <!-- 0 -->
      <defs>
       <path d="
M31.7812 66.4062
Q24.1719 66.4062 20.3281 58.9062
Q16.5 51.4219 16.5 36.375
Q16.5 21.3906 20.3281 13.8906
Q24.1719 6.39062 31.7812 6.39062
Q39.4531 6.39062 43.2812 13.8906
Q47.125 21.3906 47.125 36.375
Q47.125 51.4219 43.2812 58.9062
Q39.4531 66.4062 31.7812 66.4062
M31.7812 74.2188
Q44.0469 74.2188 50.5156 64.5156
Q56.9844 54.8281 56.9844 36.375
Q56.9844 17.9688 50.5156 8.26562
Q44.0469 -1.42188 31.7812 -1.42188
Q19.5312 -1.42188 13.0625 8.26562
Q6.59375 17.9688 6.59375 36.375
Q6.59375 54.8281 13.0625 64.5156
Q19.5312 74.2188 31.7812 74.2188" id="BitstreamVeraSans-Roman-30"/>
      </defs>
      <g style="fill:#555555;" transform="translate(69.48046875 404.3984375)scale(0.1 -0.1)">
       <use xlink:href="#BitstreamVeraSans-Roman-30"/>
      </g>
     </g>
    </g>
    <g id="xtick_2">
     <g id="line2d_4">
      <path clip-path="url(#p7ff5b81e1d)" d="
M146.4 388.8
L146.4 43.2" style="fill:none;stroke:#ffffff;stroke-linecap:square;stroke-width:0.5;"/>
     </g>
     <g id="line2d_5">
      <g>
       <use style="fill:#555555;stroke:#555555;stroke-width:0.5;" x="146.4" xlink:href="#m64c3aef5f4" y="388.8"/>
      </g>
     </g>
     <g id="line2d_6">
      <g>
       <use style="fill:#555555;stroke:#555555;stroke-width:0.5;" x="146.4" xlink:href="#m91191bb255" y="43.2"/>
      </g>
     </g>
     <g id="text_2">
      <!-- 1 -->
      <defs>
       <path d="
M12.4062 8.29688
L28.5156 8.29688
L28.5156 63.9219
L10.9844 60.4062
L10.9844 69.3906
L28.4219 72.9062
L38.2812 72.9062
L38.2812 8.29688
L54.3906 8.29688
L54.3906 0
L12.4062 0
z
" id="BitstreamVeraSans-Roman-31"/>
      </defs>
      <g style="fill:#555555;" transform="translate(144.2296875 404.3984375)scale(0.1 -0.1)">
       <use xlink:href="#BitstreamVeraSans-Roman-31"/>
      </g>
     </g>
    </g>
    <g id="xtick_3">
     <g id="line2d_7">
      <path clip-path="url(#p7ff5b81e1d)" d="
M220.8 388.8
L220.8 43.2" style="fill:none;stroke:#ffffff;stroke-linecap:square;stroke-width:0.5;"/>
     </g>
     <g id="line2d_8">
      <g>
       <use style="fill:#555555;stroke:#555555;stroke-width:0.5;" x="220.8" xlink:href="#m64c3aef5f4" y="388.8"/>
      </g>
     </g>
     <g id="line2d_9">
      <g>
       <use style="fill:#555555;stroke:#555555;stroke-width:0.5;" x="220.8" xlink:href="#m91191bb255" y="43.2"/>
      </g>
     </g>
     <g id="text_3">
      <!-- 2 -->
      <defs>
       <path d="
M19.1875 8.29688
L53.6094 8.29688
L53.6094 0
L7.32812 0
L7.32812 8.29688
Q12.9375 14.1094 22.625 23.8906
Q32.3281 33.6875 34.8125 36.5312
Q39.5469 41.8438 41.4219 45.5312
Q43.3125 49.2188 43.3125 52.7812
Q43.3125 58.5938 39.2344 62.25
Q35.1562 65.9219 28.6094 65.9219
Q23.9688 65.9219 18.8125 64.3125
Q13.6719 62.7031 7.8125 59.4219
L7.8125 69.3906
Q13.7656 71.7812 18.9375 73
Q24.125 74.2188 28.4219 74.2188
Q39.75 74.2188 46.4844 68.5469
Q53.2188 62.8906 53.2188 53.4219
Q53.2188 48.9219 51.5312 44.8906
Q49.8594 40.875 45.4062 35.4062
Q44.1875 33.9844 37.6406 27.2188
Q31.1094 20.4531 19.1875 8.29688" id="BitstreamVeraSans-Roman-32"/>
      </defs>
      <g style="fill:#555555;" transform="translate(218.4859375 404.3984375)scale(0.1 -0.1)">
       <use xlink:href="#BitstreamVeraSans-Roman-32"/>
      </g>
     </g>
    </g>
    <g id="xtick_4">
     <g id="line2d_10">
      <path clip-path="url(#p7ff5b81e1d)" d="
M295.2 388.8
L295.2 43.2" style="fill:none;stroke:#ffffff;stroke-linecap:square;stroke-width:0.5;"/>
     </g>
     <g id="line2d_11">
      <g>
       <use style="fill:#555555;stroke:#555555;stroke-width:0.5;" x="295.2" xlink:href="#m64c3aef5f4" y="388.8"/>
      </g>
     </g>
     <g id="line2d_12">
      <g>
       <use style="fill:#555555;stroke:#555555;stroke-width:0.5;" x="295.2" xlink:href="#m91191bb255" y="43.2"/>
      </g>
     </g>
     <g id="text_4">
      <!-- 3 -->
      <defs>
       <path d="
M40.5781 39.3125
Q47.6562 37.7969 51.625 33
Q55.6094 28.2188 55.6094 21.1875
Q55.6094 10.4062 48.1875 4.48438
Q40.7656 -1.42188 27.0938 -1.42188
Q22.5156 -1.42188 17.6562 -0.515625
Q12.7969 0.390625 7.625 2.20312
L7.625 11.7188
Q11.7188 9.32812 16.5938 8.10938
Q21.4844 6.89062 26.8125 6.89062
Q36.0781 6.89062 40.9375 10.5469
Q45.7969 14.2031 45.7969 21.1875
Q45.7969 27.6406 41.2812 31.2656
Q36.7656 34.9062 28.7188 34.9062
L20.2188 34.9062
L20.2188 43.0156
L29.1094 43.0156
Q36.375 43.0156 40.2344 45.9219
Q44.0938 48.8281 44.0938 54.2969
Q44.0938 59.9062 40.1094 62.9062
Q36.1406 65.9219 28.7188 65.9219
Q24.6562 65.9219 20.0156 65.0312
Q15.375 64.1562 9.8125 62.3125
L9.8125 71.0938
Q15.4375 72.6562 20.3438 73.4375
Q25.25 74.2188 29.5938 74.2188
Q40.8281 74.2188 47.3594 69.1094
Q53.9062 64.0156 53.9062 55.3281
Q53.9062 49.2656 50.4375 45.0938
Q46.9688 40.9219 40.5781 39.3125" id="BitstreamVeraSans-Roman-33"/>
      </defs>
      <g style="fill:#555555;" transform="translate(292.80078125 404.3984375)scale(0.1 -0.1)">
       <use xlink:href="#BitstreamVeraSans-Roman-33"/>
      </g>
     </g>
    </g>
    <g id="xtick_5">
     <g id="line2d_13">
      <path clip-path="url(#p7ff5b81e1d)" d="
M369.6 388.8
L369.6 43.2" style="fill:none;stroke:#ffffff;stroke-linecap:square;stroke-width:0.5;"/>
     </g>
     <g id="line2d_14">
      <g>
       <use style="fill:#555555;stroke:#555555;stroke-width:0.5;" x="369.6" xlink:href="#m64c3aef5f4" y="388.8"/>
      </g>
     </g>
     <g id="line2d_15">
      <g>
       <use style="fill:#555555;stroke:#555555;stroke-width:0.5;" x="369.6" xlink:href="#m91191bb255" y="43.2"/>
      </g>
     </g>
     <g id="text_5">
      <!-- 4 -->
      <defs>
       <path d="
M37.7969 64.3125
L12.8906 25.3906
L37.7969 25.3906
z

M35.2031 72.9062
L47.6094 72.9062
L47.6094 25.3906
L58.0156 25.3906
L58.0156 17.1875
L47.6094 17.1875
L47.6094 0
L37.7969 0
L37.7969 17.1875
L4.89062 17.1875
L4.89062 26.7031
z
" id="BitstreamVeraSans-Roman-34"/>
      </defs>
      <g style="fill:#555555;" transform="translate(366.94375 404.3984375)scale(0.1 -0.1)">
       <use xlink:href="#BitstreamVeraSans-Roman-34"/>
      </g>
     </g>
    </g>
    <g id="xtick_6">
     <g id="line2d_16">
      <path clip-path="url(#p7ff5b81e1d)" d="
M444 388.8
L444 43.2" style="fill:none;stroke:#ffffff;stroke-linecap:square;stroke-width:0.5;"/>
     </g>
     <g id="line2d_17">
      <g>
       <use style="fill:#555555;stroke:#555555;stroke-width:0.5;" x="444.0" xlink:href="#m64c3aef5f4" y="388.8"/>
      </g>
     </g>
     <g id="line2d_18">
      <g>
       <use style="fill:#555555;stroke:#555555;stroke-width:0.5;" x="444.0" xlink:href="#m91191bb255" y="43.2"/>
      </g>
     </g>
     <g id="text_6">
      <!-- 5 -->
      <defs>
       <path d="
M10.7969 72.9062
L49.5156 72.9062
L49.5156 64.5938
L19.8281 64.5938
L19.8281 46.7344
Q21.9688 47.4688 24.1094 47.8281
Q26.2656 48.1875 28.4219 48.1875
Q40.625 48.1875 47.75 41.5
Q54.8906 34.8125 54.8906 23.3906
Q54.8906 11.625 47.5625 5.09375
Q40.2344 -1.42188 26.9062 -1.42188
Q22.3125 -1.42188 17.5469 -0.640625
Q12.7969 0.140625 7.71875 1.70312
L7.71875 11.625
Q12.1094 9.23438 16.7969 8.0625
Q21.4844 6.89062 26.7031 6.89062
Q35.1562 6.89062 40.0781 11.3281
Q45.0156 15.7656 45.0156 23.3906
Q45.0156 31 40.0781 35.4375
Q35.1562 39.8906 26.7031 39.8906
Q22.75 39.8906 18.8125 39.0156
Q14.8906 38.1406 10.7969 36.2812
z
" id="BitstreamVeraSans-Roman-35"/>
      </defs>
      <g style="fill:#555555;" transform="translate(441.64140625 404.3984375)scale(0.1 -0.1)">
       <use xlink:href="#BitstreamVeraSans-Roman-35"/>
      </g>
     </g>
    </g>
    <g id="xtick_7">
     <g id="line2d_19">
      <path clip-path="url(#p7ff5b81e1d)" d="
M518.4 388.8
L518.4 43.2" style="fill:none;stroke:#ffffff;stroke-linecap:square;stroke-width:0.5;"/>
     </g>
     <g id="line2d_20">
      <g>
       <use style="fill:#555555;stroke:#555555;stroke-width:0.5;" x="518.4" xlink:href="#m64c3aef5f4" y="388.8"/>
      </g>
     </g>
     <g id="line2d_21">
      <g>
       <use style="fill:#555555;stroke:#555555;stroke-width:0.5;" x="518.4" xlink:href="#m91191bb255" y="43.2"/>
      </g>
     </g>
     <g id="text_7">
      <!-- 6 -->
      <defs>
       <path d="
M33.0156 40.375
Q26.375 40.375 22.4844 35.8281
Q18.6094 31.2969 18.6094 23.3906
Q18.6094 15.5312 22.4844 10.9531
Q26.375 6.39062 33.0156 6.39062
Q39.6562 6.39062 43.5312 10.9531
Q47.4062 15.5312 47.4062 23.3906
Q47.4062 31.2969 43.5312 35.8281
Q39.6562 40.375 33.0156 40.375
M52.5938 71.2969
L52.5938 62.3125
Q48.875 64.0625 45.0938 64.9844
Q41.3125 65.9219 37.5938 65.9219
Q27.8281 65.9219 22.6719 59.3281
Q17.5312 52.7344 16.7969 39.4062
Q19.6719 43.6562 24.0156 45.9219
Q28.375 48.1875 33.5938 48.1875
Q44.5781 48.1875 50.9531 41.5156
Q57.3281 34.8594 57.3281 23.3906
Q57.3281 12.1562 50.6875 5.35938
Q44.0469 -1.42188 33.0156 -1.42188
Q20.3594 -1.42188 13.6719 8.26562
Q6.98438 17.9688 6.98438 36.375
Q6.98438 53.6562 15.1875 63.9375
Q23.3906 74.2188 37.2031 74.2188
Q40.9219 74.2188 44.7031 73.4844
Q48.4844 72.75 52.5938 71.2969" id="BitstreamVeraSans-Roman-36"/>
      </defs>
      <g style="fill:#555555;" transform="translate(515.8828125 404.3984375)scale(0.1 -0.1)">
       <use xlink:href="#BitstreamVeraSans-Roman-36"/>
      </g>
     </g>
    </g>
    <g id="text_8">
     <!-- N -->
     <defs>
      <path d="
M9.8125 72.9062
L23.0938 72.9062
L55.4219 11.9219
L55.4219 72.9062
L64.9844 72.9062
L64.9844 0
L51.7031 0
L19.3906 60.9844
L19.3906 0
L9.8125 0
z
" id="BitstreamVeraSans-Roman-4e"/>
     </defs>
     <g style="fill:#555555;" transform="translate(291.8896875 420.59625)scale(0.12 -0.12)">
      <use xlink:href="#BitstreamVeraSans-Roman-4e"/>
     </g>
    </g>
   </g>
   <g id="matplotlib.axis_2">
    <g id="ytick_1">
     <g id="line2d_22">
      <path clip-path="url(#p7ff5b81e1d)" d="
M72 388.8
L518.4 388.8" style="fill:none;stroke:#ffffff;stroke-linecap:square;stroke-width:0.5;"/>
     </g>
     <g id="line2d_23">
      <defs>
       <path d="
M0 0
L-4 0" id="mf591f037a3" style="stroke:#555555;stroke-width:0.5;"/>
      </defs>
      <g>
       <use style="fill:#555555;stroke:#555555;stroke-width:0.5;" x="72.0" xlink:href="#mf591f037a3" y="388.8"/>
      </g>
     </g>
     <g id="line2d_24">
      <defs>
       <path d="
M0 0
L4 0" id="m9430d3eee0" style="stroke:#555555;stroke-width:0.5;"/>
      </defs>
      <g>
       <use style="fill:#555555;stroke:#555555;stroke-width:0.5;" x="518.4" xlink:href="#m9430d3eee0" y="388.8"/>
      </g>
     </g>
     <g id="text_9">
      <!-- 0.0 -->
      <defs>
       <path d="
M10.6875 12.4062
L21 12.4062
L21 0
L10.6875 0
z
" id="BitstreamVeraSans-Roman-2e"/>
      </defs>
      <g style="fill:#555555;" transform="translate(49.4203125 391.559375)scale(0.1 -0.1)">
       <use xlink:href="#BitstreamVeraSans-Roman-30"/>
       <use x="63.623046875" xlink:href="#BitstreamVeraSans-Roman-2e"/>
       <use x="95.41015625" xlink:href="#BitstreamVeraSans-Roman-30"/>
      </g>
     </g>
    </g>
    <g id="ytick_2">
     <g id="line2d_25">
      <path clip-path="url(#p7ff5b81e1d)" d="
M72 350.4
L518.4 350.4" style="fill:none;stroke:#ffffff;stroke-linecap:square;stroke-width:0.5;"/>
     </g>
     <g id="line2d_26">
      <g>
       <use style="fill:#555555;stroke:#555555;stroke-width:0.5;" x="72.0" xlink:href="#mf591f037a3" y="350.4"/>
      </g>
     </g>
     <g id="line2d_27">
      <g>
       <use style="fill:#555555;stroke:#555555;stroke-width:0.5;" x="518.4" xlink:href="#m9430d3eee0" y="350.4"/>
      </g>
     </g>
     <g id="text_10">
      <!-- 0.5 -->
      <g style="fill:#555555;" transform="translate(49.6296875 353.159375)scale(0.1 -0.1)">
       <use xlink:href="#BitstreamVeraSans-Roman-30"/>
       <use x="63.623046875" xlink:href="#BitstreamVeraSans-Roman-2e"/>
       <use x="95.41015625" xlink:href="#BitstreamVeraSans-Roman-35"/>
      </g>
     </g>
    </g>
    <g id="ytick_3">
     <g id="line2d_28">
      <path clip-path="url(#p7ff5b81e1d)" d="
M72 312
L518.4 312" style="fill:none;stroke:#ffffff;stroke-linecap:square;stroke-width:0.5;"/>
     </g>
     <g id="line2d_29">
      <g>
       <use style="fill:#555555;stroke:#555555;stroke-width:0.5;" x="72.0" xlink:href="#mf591f037a3" y="312.0"/>
      </g>
     </g>
     <g id="line2d_30">
      <g>
       <use style="fill:#555555;stroke:#555555;stroke-width:0.5;" x="518.4" xlink:href="#m9430d3eee0" y="312.0"/>
      </g>
     </g>
     <g id="text_11">
      <!-- 1.0 -->
      <g style="fill:#555555;" transform="translate(49.859375 314.759375)scale(0.1 -0.1)">
       <use xlink:href="#BitstreamVeraSans-Roman-31"/>
       <use x="63.623046875" xlink:href="#BitstreamVeraSans-Roman-2e"/>
       <use x="95.41015625" xlink:href="#BitstreamVeraSans-Roman-30"/>
      </g>
     </g>
    </g>
    <g id="ytick_4">
     <g id="line2d_31">
      <path clip-path="url(#p7ff5b81e1d)" d="
M72 273.6
L518.4 273.6" style="fill:none;stroke:#ffffff;stroke-linecap:square;stroke-width:0.5;"/>
     </g>
     <g id="line2d_32">
      <g>
       <use style="fill:#555555;stroke:#555555;stroke-width:0.5;" x="72.0" xlink:href="#mf591f037a3" y="273.6"/>
      </g>
     </g>
     <g id="line2d_33">
      <g>
       <use style="fill:#555555;stroke:#555555;stroke-width:0.5;" x="518.4" xlink:href="#m9430d3eee0" y="273.6"/>
      </g>
     </g>
     <g id="text_12">
      <!-- 1.5 -->
      <g style="fill:#555555;" transform="translate(50.06875 276.359375)scale(0.1 -0.1)">
       <use xlink:href="#BitstreamVeraSans-Roman-31"/>
       <use x="63.623046875" xlink:href="#BitstreamVeraSans-Roman-2e"/>
       <use x="95.41015625" xlink:href="#BitstreamVeraSans-Roman-35"/>
      </g>
     </g>
    </g>
    <g id="ytick_5">
     <g id="line2d_34">
      <path clip-path="url(#p7ff5b81e1d)" d="
M72 235.2
L518.4 235.2" style="fill:none;stroke:#ffffff;stroke-linecap:square;stroke-width:0.5;"/>
     </g>
     <g id="line2d_35">
      <g>
       <use style="fill:#555555;stroke:#555555;stroke-width:0.5;" x="72.0" xlink:href="#mf591f037a3" y="235.2"/>
      </g>
     </g>
     <g id="line2d_36">
      <g>
       <use style="fill:#555555;stroke:#555555;stroke-width:0.5;" x="518.4" xlink:href="#m9430d3eee0" y="235.2"/>
      </g>
     </g>
     <g id="text_13">
      <!-- 2.0 -->
      <g style="fill:#555555;" transform="translate(49.49375 237.959375)scale(0.1 -0.1)">
       <use xlink:href="#BitstreamVeraSans-Roman-32"/>
       <use x="63.623046875" xlink:href="#BitstreamVeraSans-Roman-2e"/>
       <use x="95.41015625" xlink:href="#BitstreamVeraSans-Roman-30"/>
      </g>
     </g>
    </g>
    <g id="ytick_6">
     <g id="line2d_37">
      <path clip-path="url(#p7ff5b81e1d)" d="
M72 196.8
L518.4 196.8" style="fill:none;stroke:#ffffff;stroke-linecap:square;stroke-width:0.5;"/>
     </g>
     <g id="line2d_38">
      <g>
       <use style="fill:#555555;stroke:#555555;stroke-width:0.5;" x="72.0" xlink:href="#mf591f037a3" y="196.8"/>
      </g>
     </g>
     <g id="line2d_39">
      <g>
       <use style="fill:#555555;stroke:#555555;stroke-width:0.5;" x="518.4" xlink:href="#m9430d3eee0" y="196.8"/>
      </g>
     </g>
     <g id="text_14">
      <!-- 2.5 -->
      <g style="fill:#555555;" transform="translate(49.703125 199.559375)scale(0.1 -0.1)">
       <use xlink:href="#BitstreamVeraSans-Roman-32"/>
       <use x="63.623046875" xlink:href="#BitstreamVeraSans-Roman-2e"/>
       <use x="95.41015625" xlink:href="#BitstreamVeraSans-Roman-35"/>
      </g>
     </g>
    </g>
    <g id="ytick_7">
     <g id="line2d_40">
      <path clip-path="url(#p7ff5b81e1d)" d="
M72 158.4
L518.4 158.4" style="fill:none;stroke:#ffffff;stroke-linecap:square;stroke-width:0.5;"/>
     </g>
     <g id="line2d_41">
      <g>
       <use style="fill:#555555;stroke:#555555;stroke-width:0.5;" x="72.0" xlink:href="#mf591f037a3" y="158.4"/>
      </g>
     </g>
     <g id="line2d_42">
      <g>
       <use style="fill:#555555;stroke:#555555;stroke-width:0.5;" x="518.4" xlink:href="#m9430d3eee0" y="158.4"/>
      </g>
     </g>
     <g id="text_15">
      <!-- 3.0 -->
      <g style="fill:#555555;" transform="translate(49.5234375 161.159375)scale(0.1 -0.1)">
       <use xlink:href="#BitstreamVeraSans-Roman-33"/>
       <use x="63.623046875" xlink:href="#BitstreamVeraSans-Roman-2e"/>
       <use x="95.41015625" xlink:href="#BitstreamVeraSans-Roman-30"/>
      </g>
     </g>
    </g>
    <g id="ytick_8">
     <g id="line2d_43">
      <path clip-path="url(#p7ff5b81e1d)" d="
M72 120
L518.4 120" style="fill:none;stroke:#ffffff;stroke-linecap:square;stroke-width:0.5;"/>
     </g>
     <g id="line2d_44">
      <g>
       <use style="fill:#555555;stroke:#555555;stroke-width:0.5;" x="72.0" xlink:href="#mf591f037a3" y="120.0"/>
      </g>
     </g>
     <g id="line2d_45">
      <g>
       <use style="fill:#555555;stroke:#555555;stroke-width:0.5;" x="518.4" xlink:href="#m9430d3eee0" y="120.0"/>
      </g>
     </g>
     <g id="text_16">
      <!-- 3.5 -->
      <g style="fill:#555555;" transform="translate(49.7328125 122.759375)scale(0.1 -0.1)">
       <use xlink:href="#BitstreamVeraSans-Roman-33"/>
       <use x="63.623046875" xlink:href="#BitstreamVeraSans-Roman-2e"/>
       <use x="95.41015625" xlink:href="#BitstreamVeraSans-Roman-35"/>
      </g>
     </g>
    </g>
    <g id="ytick_9">
     <g id="line2d_46">
      <path clip-path="url(#p7ff5b81e1d)" d="
M72 81.6
L518.4 81.6" style="fill:none;stroke:#ffffff;stroke-linecap:square;stroke-width:0.5;"/>
     </g>
     <g id="line2d_47">
      <g>
       <use style="fill:#555555;stroke:#555555;stroke-width:0.5;" x="72.0" xlink:href="#mf591f037a3" y="81.6"/>
      </g>
     </g>
     <g id="line2d_48">
      <g>
       <use style="fill:#555555;stroke:#555555;stroke-width:0.5;" x="518.4" xlink:href="#m9430d3eee0" y="81.6"/>
      </g>
     </g>
     <g id="text_17">
      <!-- 4.0 -->
      <g style="fill:#555555;" transform="translate(49.25 84.359375)scale(0.1 -0.1)">
       <use xlink:href="#BitstreamVeraSans-Roman-34"/>
       <use x="63.623046875" xlink:href="#BitstreamVeraSans-Roman-2e"/>
       <use x="95.41015625" xlink:href="#BitstreamVeraSans-Roman-30"/>
      </g>
     </g>
    </g>
    <g id="ytick_10">
     <g id="line2d_49">
      <path clip-path="url(#p7ff5b81e1d)" d="
M72 43.2
L518.4 43.2" style="fill:none;stroke:#ffffff;stroke-linecap:square;stroke-width:0.5;"/>
     </g>
     <g id="line2d_50">
      <g>
       <use style="fill:#555555;stroke:#555555;stroke-width:0.5;" x="72.0" xlink:href="#mf591f037a3" y="43.2"/>
      </g>
     </g>
     <g id="line2d_51">
      <g>
       <use style="fill:#555555;stroke:#555555;stroke-width:0.5;" x="518.4" xlink:href="#m9430d3eee0" y="43.2"/>
      </g>
     </g>
     <g id="text_18">
      <!-- 4.5 -->
      <g style="fill:#555555;" transform="translate(49.459375 45.959375)scale(0.1 -0.1)">
       <use xlink:href="#BitstreamVeraSans-Roman-34"/>
       <use x="63.623046875" xlink:href="#BitstreamVeraSans-Roman-2e"/>
       <use x="95.41015625" xlink:href="#BitstreamVeraSans-Roman-35"/>
      </g>
     </g>
    </g>
   </g>
   <g id="line2d_52">
    <path clip-path="url(#p7ff5b81e1d)" d="
M72 235.2
L94.3966 55.1701
L107.498 81.902
L116.793 151.229
L124.003 282.084
L152.291 311.284
L154.877 309.181
L165.392 321.294
L170.373 326.915
L171.876 332.25
L173.313 333.732
L174.688 332.482
L176.007 329.339
L180.802 335.192
L181.898 334.71
L182.957 336.031
L183.983 335.677
L185.942 338.17
L187.789 337.719
L193.53 345.201
L194.999 344.896
L195.709 348.967
L200.286 355.054
L200.89 354.957
L203.199 358.013
L203.751 357.299
L204.829 358.747
L205.354 357.968
L205.871 358.674
L206.38 358.666
L206.881 359.355
L207.374 357.745
L207.86 358.435
L208.339 357.9
L211.071 361.8
L211.933 361.925
L212.355 362.529
L213.183 362.676
L213.59 361.779
L214.388 362.007
L215.927 360.846
L216.3 360.615
L216.67 360.024
L217.035 360.589
L217.396 360.405
L217.753 359.532
L218.106 359.742
L218.801 360.834
L219.143 359.719
L219.481 360.257
L219.816 360.156
L220.147 360.373
L220.475 360.896
L220.8 361.109
L221.44 362.128
L221.755 362.331
L222.067 362.243
L222.376 361.881
L222.683 362.373
L222.986 362.581
L223.287 363.064
L223.585 363.268
L223.88 363.741
L224.172 363.94
L224.749 364.865
L225.034 364.535
L225.316 364.989
L225.873 365.375
L226.148 365.319
L226.421 365.759
L226.691 365.467
L226.959 365.9
L227.225 368.973
L228.268 369.632
L228.776 370.44
L229.028 370.598
L229.277 370.521
L229.525 370.682
L230.015 370.55
L230.497 369.796
L230.735 369.55
L231.44 370.489
L231.672 370.457
L231.902 370.63
L232.13 370.408
L232.357 370.636
L232.806 370.604
L233.028 370.408
L233.248 370.586
L233.467 370.402
L233.685 370.761
L233.901 370.76
L234.116 370.939
L234.329 370.769
L234.541 370.777
L234.752 370.619
L234.961 370.305
L235.168 370.327
L235.375 370.033
L235.58 370.219
L235.784 370.562
L235.987 370.435
L236.188 370.163
L236.388 370.2
L237.755 371.487
L237.945 371.384
L239.066 372.455
L239.431 371.88
L239.792 372.108
L239.971 372.158
L240.149 372.463
L240.326 372.387
L240.502 372.563
L240.678 372.247
L241.197 372.656
L241.369 372.594
L241.878 373.002
L242.045 372.528
L242.212 372.483
L242.544 372.836
L242.708 373.012
L242.872 372.862
L243.035 372.93
L243.197 372.578
L243.358 372.65
L243.678 372.188
L244.619 373.143
L245.079 373.087
L245.683 373.958
L245.833 374.033
L246.129 373.911
L247.002 373.947
L247.146 374.114
L247.43 373.522
L247.992 374.108
L248.131 374.031
L248.27 374.276
L248.953 374.386
L249.088 374.626
L249.222 374.253
L249.622 374.516
L249.754 374.381
L249.886 376.846
L250.147 377.231
L250.407 377.152
L250.536 377.38
L250.792 377.456
L251.674 377.989
L251.798 377.922
L252.045 378.075
L253.013 378.757
L253.132 378.563
L253.486 378.729
L253.72 378.495
L254.069 378.605
L254.184 378.622
L254.527 378.923
L254.754 378.775
L254.979 378.936
L255.314 378.761
L255.535 378.691
L255.645 378.831
L255.755 378.569
L256.082 378.875
L256.298 378.817
L257.461 379.145
L257.668 379.313
L257.874 379.223
L258.079 379.442
L258.282 379.208
L259.573 379.683
L259.767 379.759
L260.151 379.643
L260.342 379.591
L261.001 379.925
L261.186 380.137
L261.463 380.011
L261.919 380.35
L262.009 380.311
L262.279 380.523
L262.368 380.446
L262.457 380.61
L262.635 380.381
L262.723 380.465
L262.899 380.4
L263.074 380.491
L263.335 380.667
L263.422 380.486
L263.508 380.57
L263.68 380.404
L263.851 380.537
L264.021 380.487
L264.19 380.547
L264.609 380.719
L264.692 380.628
L264.94 380.88
L265.187 380.822
L265.35 380.786
L265.674 380.921
L265.835 380.89
L266.074 381.14
L266.233 381.144
L266.548 381.378
L266.705 381.353
L267.323 381.637
L267.476 381.618
L267.552 381.458
L267.628 381.54
L267.855 381.696
L268.378 381.97
L268.526 381.988
L269.255 382.255
L269.542 382.497
L269.685 382.548
L269.898 382.624
L270.039 382.596
L270.249 382.78
L270.666 383.016
L270.941 382.945
L271.214 382.956
L271.349 382.987
L271.552 383.024
L271.686 382.961
L271.952 383.054
L272.413 383.147
L272.803 383.149
L272.997 383.175
L273.38 383.278
L273.507 383.255
L273.57 383.331
L273.633 383.255
L273.821 383.268
L273.884 383.344
L273.946 383.292
L274.441 383.29
L274.625 383.189
L274.808 383.152
L274.99 383.218
L275.35 383.372
L275.469 383.307
L275.647 383.395
L275.824 383.332
L276.059 383.459
L276.175 383.495
L276.35 383.53
L276.867 383.608
L277.037 383.702
L277.207 383.69
L277.543 383.845
L277.821 383.811
L278.151 383.771
L278.315 384.057
L279.016 384.024
L279.334 384.054
L279.492 384.018
L279.702 383.963
L279.806 383.997
L280.013 383.858
L280.22 383.989
L281.479 383.974
L281.823 384.126
L283.304 384.464
L283.444 384.441
L284.225 384.629
L284.586 384.681
L284.898 384.598
L285.252 384.73
L285.775 384.634
L285.861 384.517
L285.905 384.548
L286.119 384.58
L286.375 384.614
L286.755 384.686
L287.337 384.681
L287.543 384.794
L287.747 384.765
L288.071 384.771
L288.431 384.69
L288.63 384.675
L288.866 384.652
L289.101 384.693
L289.14 384.64
L289.218 384.706
L289.451 384.768
L289.605 384.766
L289.72 384.773
L289.796 384.74
L289.835 384.773
L290.589 384.832
L290.7 384.838
L290.922 384.976
L292.541 385.3
L293.814 385.569
L294.015 385.643
L294.149 385.658
L294.282 385.66
L294.712 385.696
L295.168 385.81
L295.297 385.802
L295.649 385.899
L296.991 386.175
L297.144 386.178
L298.103 386.242
L298.25 386.26
L298.455 386.262
L298.63 386.224
L298.977 386.314
L299.12 386.304
L299.688 386.438
L299.94 386.495
L300.438 386.632
L300.63 386.619
L300.766 386.594
L302.872 386.55
L302.974 386.489
L302.999 386.581
L303.277 386.584
L303.503 386.506
L304.487 386.624
L304.632 386.59
L305.443 386.574
L305.584 386.6
L306.187 386.671
L306.371 386.632
L306.485 386.61
L306.621 386.581
L307.049 386.553
L307.339 386.569
L307.494 386.529
L307.692 386.579
L308.75 386.635
L309.465 386.682
L309.568 386.761
L309.589 386.745
L309.857 386.841
L310.143 386.914
L310.306 386.95
L310.487 386.924
L310.788 386.872
L310.987 386.836
L311.184 386.888
L311.42 386.868
L312.761 386.919
L312.911 386.919
L313.576 386.937
L313.849 386.943
L314.514 387.011
L314.726 386.997
L315.408 387.027
L315.615 387.011
L316.696 387.058
L316.828 387.053
L316.993 387.086
L319.065 387.217
L319.311 387.259
L320.676 387.477
L320.91 387.462
L325.686 387.572
L325.887 387.576
L326.396 387.556
L326.702 387.589
L327.162 387.611
L328.155 387.67
L329.052 387.701
L329.278 387.7
L329.513 387.72
L329.68 387.731
L329.968 387.723
L330.264 387.752
L330.525 387.759
L331.009 387.741
L331.19 387.757
L331.454 387.771
L331.841 387.808
L332.418 387.826
L332.884 387.878
L333.125 387.872
L333.817 387.922
L334.157 387.938
L334.35 387.926
L334.827 387.954
L335.438 387.97
L336.082 387.974
L336.454 387.977
L337.718 388.092
L338.071 388.081
L338.276 388.082
L338.758 388.055
L338.934 388.052
L340.752 388.069
L341.089 388.059
L341.323 388.078
L341.562 388.081
L375.537 388.522
L376.123 388.53
L377.003 388.533
L377.455 388.531
L378.196 388.525
L378.729 388.529
L379.533 388.543
L380.077 388.544
L382.822 388.563
L384.823 388.588
L385.359 388.588
L385.959 388.59
L386.667 388.591
L387.554 388.598
L388.38 388.6
L388.878 388.601
L395.267 388.636
L395.697 388.638
L398.094 388.653
L399.127 388.651
L399.964 388.656
L407.201 388.675
L408.356 388.673
L491.382 388.792
L493.487 388.792
L495.354 388.792
L500.62 388.792
L503.382 388.793
L506.342 388.794
L509.387 388.795
L514.505 388.796
L518.4 388.796
L518.4 388.796" style="fill:none;stroke:#e24a33;stroke-linecap:square;"/>
   </g>
   <g id="patch_3">
    <path d="
M72 43.2
L518.4 43.2" style="fill:none;stroke:#ffffff;stroke-linecap:square;stroke-linejoin:miter;"/>
   </g>
   <g id="patch_4">
    <path d="
M518.4 388.8
L518.4 43.2" style="fill:none;stroke:#ffffff;stroke-linecap:square;stroke-linejoin:miter;"/>
   </g>
   <g id="patch_5">
    <path d="
M72 388.8
L518.4 388.8" style="fill:none;stroke:#ffffff;stroke-linecap:square;stroke-linejoin:miter;"/>
   </g>
   <g id="patch_6">
    <path d="
M72 388.8
L72 43.2" style="fill:none;stroke:#ffffff;stroke-linecap:square;stroke-linejoin:miter;"/>
   </g>
   <g id="text_19">
    <!-- MSE -->
    <defs>
     <path d="
M9.8125 72.9062
L55.9062 72.9062
L55.9062 64.5938
L19.6719 64.5938
L19.6719 43.0156
L54.3906 43.0156
L54.3906 34.7188
L19.6719 34.7188
L19.6719 8.29688
L56.7812 8.29688
L56.7812 0
L9.8125 0
z
" id="BitstreamVeraSans-Roman-45"/>
     <path d="
M9.8125 72.9062
L24.5156 72.9062
L43.1094 23.2969
L61.8125 72.9062
L76.5156 72.9062
L76.5156 0
L66.8906 0
L66.8906 64.0156
L48.0938 14.0156
L38.1875 14.0156
L19.3906 64.0156
L19.3906 0
L9.8125 0
z
" id="BitstreamVeraSans-Roman-4d"/>
     <path d="
M53.5156 70.5156
L53.5156 60.8906
Q47.9062 63.5781 42.9219 64.8906
Q37.9375 66.2188 33.2969 66.2188
Q25.25 66.2188 20.875 63.0938
Q16.5 59.9688 16.5 54.2031
Q16.5 49.3594 19.4062 46.8906
Q22.3125 44.4375 30.4219 42.9219
L36.375 41.7031
Q47.4062 39.5938 52.6562 34.2969
Q57.9062 29 57.9062 20.125
Q57.9062 9.51562 50.7969 4.04688
Q43.7031 -1.42188 29.9844 -1.42188
Q24.8125 -1.42188 18.9688 -0.25
Q13.1406 0.921875 6.89062 3.21875
L6.89062 13.375
Q12.8906 10.0156 18.6562 8.29688
Q24.4219 6.59375 29.9844 6.59375
Q38.4219 6.59375 43.0156 9.90625
Q47.6094 13.2344 47.6094 19.3906
Q47.6094 24.75 44.3125 27.7812
Q41.0156 30.8125 33.5 32.3281
L27.4844 33.5
Q16.4531 35.6875 11.5156 40.375
Q6.59375 45.0625 6.59375 53.4219
Q6.59375 63.0938 13.4062 68.6562
Q20.2188 74.2188 32.1719 74.2188
Q37.3125 74.2188 42.625 73.2812
Q47.9531 72.3594 53.5156 70.5156" id="BitstreamVeraSans-Roman-53"/>
    </defs>
    <g transform="translate(281.035125 38.2)scale(0.144 -0.144)">
     <use xlink:href="#BitstreamVeraSans-Roman-4d"/>
     <use x="86.279296875" xlink:href="#BitstreamVeraSans-Roman-53"/>
     <use x="149.755859375" xlink:href="#BitstreamVeraSans-Roman-45"/>
    </g>
   </g>
  </g>
 </g>
 <defs>
  <clipPath id="p7ff5b81e1d">
   <rect height="345.6" width="446.4" x="72.0" y="43.2"/>
  </clipPath>
 </defs>
</svg>
